# Blender v2.78 (sub 0) OBJ File: 'The_Haptic_Device2.blend'
# www.blender.org
o Cylinder.005_Cylinder.008
v 2.784798 0.340386 -0.095776
v 2.784801 0.359140 -0.093929
v 2.784804 0.377172 -0.088459
v 2.784807 0.393792 -0.079575
v 2.784810 0.408358 -0.067621
v 2.784811 0.420313 -0.053054
v 2.784813 0.429196 -0.036435
v 2.784814 0.434667 -0.018402
v 2.784814 0.436514 0.000352
v 2.592543 0.340418 0.000352
v 2.784814 0.434667 0.019105
v 2.784813 0.429196 0.037138
v 2.784811 0.420313 0.053757
v 2.784810 0.408358 0.068324
v 2.784807 0.393792 0.080279
v 2.784804 0.377172 0.089162
v 2.784801 0.359140 0.094632
v 2.784798 0.340386 0.096479
v 2.784795 0.321632 0.094632
v 2.784792 0.303600 0.089162
v 2.784789 0.286980 0.080279
v 2.784787 0.272413 0.068324
v 2.784785 0.260459 0.053757
v 2.784783 0.251576 0.037138
v 2.784782 0.246105 0.019105
v 2.784782 0.244258 0.000352
v 2.784782 0.246105 -0.018402
v 2.784783 0.251576 -0.036435
v 2.784785 0.260459 -0.053054
v 2.784787 0.272414 -0.067621
v 2.784789 0.286980 -0.079576
v 2.784792 0.303600 -0.088459
v 2.784795 0.321633 -0.093929
v 4.460623 0.341262 -0.096897
v 2.786070 0.341545 -0.096897
v 4.460626 0.360048 -0.095046
v 2.786073 0.360330 -0.095047
v 4.460629 0.378112 -0.089567
v 2.786076 0.378394 -0.089567
v 4.460632 0.394759 -0.080668
v 2.786079 0.395042 -0.080669
v 4.460635 0.409351 -0.068693
v 2.786082 0.409633 -0.068693
v 4.460637 0.421326 -0.054101
v 2.786083 0.421608 -0.054102
v 4.460638 0.430225 -0.037454
v 2.786085 0.430507 -0.037454
v 4.460639 0.435704 -0.019390
v 2.786086 0.435986 -0.019390
v 4.460639 0.437554 -0.000604
v 2.786086 0.437837 -0.000605
v 4.460639 0.435704 0.018181
v 2.786086 0.435986 0.018181
v 4.460638 0.430225 0.036245
v 2.786085 0.430507 0.036245
v 4.460637 0.421326 0.052893
v 2.786083 0.421608 0.052892
v 4.460635 0.409351 0.067484
v 2.786081 0.409633 0.067484
v 4.460632 0.394759 0.079459
v 2.786079 0.395041 0.079459
v 4.460629 0.378112 0.088358
v 2.786076 0.378394 0.088358
v 4.460626 0.360048 0.093837
v 2.786073 0.360330 0.093837
v 4.460623 0.341262 0.095688
v 2.786070 0.341544 0.095687
v 4.460620 0.322477 0.093837
v 2.786067 0.322759 0.093837
v 4.460617 0.304413 0.088358
v 2.786064 0.304695 0.088358
v 4.460614 0.287765 0.079459
v 2.786061 0.288047 0.079459
v 4.460612 0.273174 0.067484
v 2.786058 0.273456 0.067484
v 4.460609 0.261198 0.052892
v 2.786057 0.261481 0.052892
v 4.460608 0.252300 0.036245
v 2.786055 0.252582 0.036245
v 4.460607 0.246820 0.018181
v 2.786054 0.247103 0.018181
v 4.460607 0.244970 -0.000605
v 2.786054 0.245252 -0.000605
v 4.460607 0.246821 -0.019390
v 2.786054 0.247103 -0.019390
v 4.460608 0.252300 -0.037454
v 2.786055 0.252582 -0.037454
v 4.460609 0.261198 -0.054102
v 2.786057 0.261481 -0.054102
v 4.460612 0.273174 -0.068693
v 2.786058 0.273456 -0.068694
v 4.460614 0.287765 -0.080668
v 2.786061 0.288048 -0.080669
v 4.460617 0.304413 -0.089567
v 2.786064 0.304695 -0.089567
v 4.460620 0.322477 -0.095046
v 2.786067 0.322759 -0.095047
vn -0.4455 0.0878 -0.8910
vn -0.4454 0.2600 -0.8567
vn -0.4454 0.4221 -0.7896
vn -0.4454 0.5680 -0.6921
vn -0.4454 0.6921 -0.5680
vn -0.4454 0.7896 -0.4220
vn -0.4453 0.8568 -0.2599
vn -0.4453 0.8911 -0.0877
vn -0.4453 0.8911 0.0877
vn -0.4453 0.8568 0.2599
vn -0.4454 0.7896 0.4220
vn -0.4454 0.6921 0.5680
vn -0.4454 0.5680 0.6921
vn -0.4454 0.4221 0.7896
vn -0.4454 0.2600 0.8567
vn -0.4455 0.0878 0.8910
vn -0.4455 -0.0877 0.8910
vn -0.4455 -0.2598 0.8567
vn -0.4456 -0.4220 0.7896
vn -0.4456 -0.5679 0.6921
vn -0.4456 -0.6920 0.5680
vn -0.4456 -0.7895 0.4220
vn -0.4456 -0.8567 0.2599
vn -0.4456 -0.8909 0.0878
vn -0.4456 -0.8909 -0.0878
vn -0.4456 -0.8567 -0.2599
vn -0.4456 -0.7895 -0.4220
vn -0.4456 -0.6920 -0.5680
vn -0.4456 -0.5679 -0.6921
vn -0.4456 -0.4220 -0.7896
vn -0.4455 -0.2598 -0.8567
vn -0.4455 -0.0877 -0.8910
vn 1.0000 -0.0002 0.0000
vn 0.0000 0.0980 -0.9952
vn 0.0000 0.2903 -0.9569
vn 0.0001 0.4714 -0.8819
vn 0.0001 0.6344 -0.7730
vn 0.0001 0.7730 -0.6344
vn 0.0001 0.8819 -0.4714
vn 0.0002 0.9569 -0.2903
vn 0.0002 0.9952 -0.0980
vn 0.0002 0.9952 0.0980
vn 0.0002 0.9569 0.2903
vn 0.0001 0.8819 0.4714
vn 0.0001 0.7730 0.6344
vn 0.0001 0.6344 0.7730
vn 0.0001 0.4714 0.8819
vn 0.0000 0.2903 0.9569
vn 0.0000 0.0980 0.9952
vn -0.0000 -0.0980 0.9952
vn -0.0000 -0.2903 0.9569
vn -0.0001 -0.4714 0.8819
vn -0.0001 -0.6344 0.7730
vn -0.0001 -0.7730 0.6344
vn -0.0001 -0.8819 0.4714
vn -0.0002 -0.9569 0.2903
vn -0.0002 -0.9952 0.0980
vn -0.0002 -0.9952 -0.0980
vn -0.0002 -0.9569 -0.2903
vn -0.0001 -0.8819 -0.4714
vn -0.0001 -0.7730 -0.6344
vn -0.0001 -0.6344 -0.7730
vn -0.0001 -0.4714 -0.8819
vn -1.0000 0.0002 0.0000
vn -0.0000 -0.2903 -0.9569
vn -0.0000 -0.0980 -0.9952
vn 1.0000 -0.0002 -0.0001
vn 1.0000 -0.0001 -0.0000
vn 1.0000 -0.0001 -0.0001
vn 1.0000 -0.0003 0.0000
vn -1.0000 0.0002 -0.0001
vn -1.0000 0.0000 -0.0000
vn -1.0000 0.0001 0.0000
vn -1.0000 0.0001 0.0001
vn -1.0000 0.0003 -0.0000
vn 1.0000 -0.0001 0.0001
vn 1.0000 0.0000 -0.0000
vn 1.0000 -0.0006 0.0000
vn 1.0000 -0.0002 0.0001
s off
f 1//1 10//1 2//1
f 2//2 10//2 3//2
f 3//3 10//3 4//3
f 4//4 10//4 5//4
f 5//5 10//5 6//5
f 6//6 10//6 7//6
f 7//7 10//7 8//7
f 8//8 10//8 9//8
f 9//9 10//9 11//9
f 11//10 10//10 12//10
f 12//11 10//11 13//11
f 13//12 10//12 14//12
f 14//13 10//13 15//13
f 15//14 10//14 16//14
f 16//15 10//15 17//15
f 17//16 10//16 18//16
f 18//17 10//17 19//17
f 19//18 10//18 20//18
f 20//19 10//19 21//19
f 21//20 10//20 22//20
f 22//21 10//21 23//21
f 23//22 10//22 24//22
f 24//23 10//23 25//23
f 25//24 10//24 26//24
f 26//25 10//25 27//25
f 27//26 10//26 28//26
f 28//27 10//27 29//27
f 29//28 10//28 30//28
f 30//29 10//29 31//29
f 31//30 10//30 32//30
f 32//31 10//31 33//31
f 33//32 10//32 1//32
f 17//33 25//33 33//33
f 35//34 36//34 34//34
f 36//35 39//35 38//35
f 39//36 40//36 38//36
f 41//37 42//37 40//37
f 43//38 44//38 42//38
f 44//39 47//39 46//39
f 47//40 48//40 46//40
f 49//41 50//41 48//41
f 51//42 52//42 50//42
f 53//43 54//43 52//43
f 55//44 56//44 54//44
f 57//45 58//45 56//45
f 58//46 61//46 60//46
f 61//47 62//47 60//47
f 63//48 64//48 62//48
f 65//49 66//49 64//49
f 67//50 68//50 66//50
f 69//51 70//51 68//51
f 70//52 73//52 72//52
f 73//53 74//53 72//53
f 75//54 76//54 74//54
f 77//55 78//55 76//55
f 79//56 80//56 78//56
f 81//57 82//57 80//57
f 83//58 84//58 82//58
f 85//59 86//59 84//59
f 87//60 88//60 86//60
f 89//61 90//61 88//61
f 91//62 92//62 90//62
f 93//63 94//63 92//63
f 71//64 47//64 39//64
f 95//65 96//65 94//65
f 97//66 34//66 96//66
f 72//33 80//33 96//33
f 33//67 1//67 2//67
f 2//33 3//33 33//33
f 4//33 5//33 8//33
f 6//33 7//33 8//33
f 8//68 9//68 13//68
f 11//68 12//68 13//68
f 13//33 14//33 17//33
f 15//33 16//33 17//33
f 17//67 18//67 19//67
f 19//69 20//69 21//69
f 21//33 22//33 23//33
f 23//70 24//70 25//70
f 25//70 26//70 27//70
f 27//33 28//33 29//33
f 29//33 30//33 33//33
f 31//68 32//68 33//68
f 33//33 3//33 4//33
f 5//68 6//68 8//68
f 9//68 11//68 13//68
f 14//33 15//33 17//33
f 17//33 19//33 25//33
f 21//33 23//33 25//33
f 25//33 27//33 33//33
f 30//33 31//33 33//33
f 33//33 4//33 8//33
f 8//33 13//33 17//33
f 19//33 21//33 25//33
f 27//33 29//33 33//33
f 33//33 8//33 17//33
f 35//34 37//34 36//34
f 36//35 37//35 39//35
f 39//36 41//36 40//36
f 41//37 43//37 42//37
f 43//38 45//38 44//38
f 44//39 45//39 47//39
f 47//40 49//40 48//40
f 49//41 51//41 50//41
f 51//42 53//42 52//42
f 53//43 55//43 54//43
f 55//44 57//44 56//44
f 57//45 59//45 58//45
f 58//46 59//46 61//46
f 61//47 63//47 62//47
f 63//48 65//48 64//48
f 65//49 67//49 66//49
f 67//50 69//50 68//50
f 69//51 71//51 70//51
f 70//52 71//52 73//52
f 73//53 75//53 74//53
f 75//54 77//54 76//54
f 77//55 79//55 78//55
f 79//56 81//56 80//56
f 81//57 83//57 82//57
f 83//58 85//58 84//58
f 85//59 87//59 86//59
f 87//60 89//60 88//60
f 89//61 91//61 90//61
f 91//62 93//62 92//62
f 93//63 95//63 94//63
f 39//71 37//71 35//71
f 35//64 97//64 39//64
f 95//71 93//71 91//71
f 91//72 89//72 87//72
f 87//64 85//64 83//64
f 83//73 81//73 79//73
f 79//73 77//73 71//73
f 75//74 73//74 71//74
f 71//64 69//64 67//64
f 67//64 65//64 71//64
f 63//64 61//64 55//64
f 59//72 57//72 55//72
f 55//64 53//64 51//64
f 51//75 49//75 55//75
f 47//64 45//64 43//64
f 43//73 41//73 47//73
f 39//64 97//64 95//64
f 95//64 91//64 39//64
f 87//64 83//64 79//64
f 77//64 75//64 71//64
f 71//64 65//64 63//64
f 61//64 59//64 55//64
f 55//73 49//73 47//73
f 47//64 41//64 39//64
f 39//64 91//64 87//64
f 87//64 79//64 71//64
f 71//64 63//64 55//64
f 55//64 47//64 71//64
f 39//64 87//64 71//64
f 95//65 97//65 96//65
f 97//66 35//66 34//66
f 96//68 34//68 40//68
f 36//76 38//76 40//76
f 40//33 42//33 44//33
f 44//77 46//77 48//77
f 48//68 50//68 56//68
f 52//33 54//33 56//33
f 56//70 58//70 60//70
f 60//67 62//67 64//67
f 64//67 66//67 68//67
f 68//33 70//33 64//33
f 72//77 74//77 80//77
f 76//77 78//77 80//77
f 80//77 82//77 84//77
f 84//78 86//78 88//78
f 88//76 90//76 96//76
f 92//79 94//79 96//79
f 34//67 36//67 40//67
f 40//33 44//33 48//33
f 50//77 52//77 56//77
f 56//68 60//68 64//68
f 64//68 70//68 72//68
f 74//70 76//70 80//70
f 80//68 84//68 96//68
f 90//70 92//70 96//70
f 96//33 40//33 48//33
f 48//33 56//33 64//33
f 64//33 72//33 96//33
f 84//33 88//33 96//33
f 96//33 48//33 64//33
